<svg fill="#FA5252" xmlns="http://www.w3.org/2000/svg"  viewBox="0 0 50 50" width="150px" height="150px"><path d="M 5 5 L 5 45 L 45 45 L 45 5 L 5 5 z M 26.632812 9.9882812 C 26.632812 9.9882812 29.695297 10.026297 30.904297 10.029297 C 31.611297 10.030297 32.317438 10.02 33.023438 10 C 33.233438 9.994 33.320406 10.041437 33.316406 10.273438 C 33.302406 11.005437 33.305406 11.73675 33.316406 12.46875 C 33.319406 12.66975 33.251641 12.724656 33.056641 12.722656 C 32.121641 12.713656 31.186 12.71875 30.25 12.71875 L 29.908203 12.71875 C 29.908203 13.12575 29.927734 14.986328 29.927734 14.986328 L 33.164062 15.015625 L 33.148438 17.693359 L 29.908203 17.681641 L 29.908203 19.847656 L 33.371094 19.8125 C 33.371094 19.8125 33.365234 20.817828 33.365234 21.173828 C 33.337234 21.180828 33.310203 21.186359 33.283203 21.193359 C 33.252203 21.136359 33.212406 21.082484 33.191406 21.021484 C 33.160406 20.926484 33.169281 20.767188 33.113281 20.742188 C 32.951281 20.668187 32.758844 20.593234 32.589844 20.615234 C 32.163844 20.669234 32.149438 20.710859 32.148438 21.130859 L 32.148438 21.410156 L 31.736328 21.410156 C 31.662328 21.318156 31.773797 21.037391 31.466797 21.150391 C 31.497797 21.237391 31.521781 21.302813 31.550781 21.382812 C 31.471781 21.403813 31.406844 21.4195 31.339844 21.4375 L 31.339844 21.966797 C 31.071844 21.926797 30.808016 21.875469 30.541016 21.855469 C 30.489016 21.851469 30.381859 21.965344 30.380859 22.027344 C 30.377859 22.203344 30.287531 22.239422 30.144531 22.232422 C 30.109531 22.231422 30.074062 22.228516 30.039062 22.228516 C 29.632062 22.227516 29.639531 22.2265 29.644531 21.8125 C 29.646531 21.6845 29.602078 21.555688 29.580078 21.429688 C 29.195078 21.331688 28.519984 21.567781 28.208984 21.925781 C 28.188984 21.790781 28.173297 21.682828 28.154297 21.548828 L 27.353516 21.548828 C 27.338516 21.769828 27.324547 21.984359 27.310547 22.193359 C 26.880547 22.257359 26.876875 22.256594 26.796875 22.058594 C 26.761875 22.116594 26.728453 22.169375 26.689453 22.234375 C 26.655453 22.202375 26.623047 22.186922 26.623047 22.169922 C 26.618047 21.720922 26.622328 21.271266 26.611328 20.822266 C 26.606328 20.624266 26.604719 20.441156 26.761719 20.285156 C 26.867719 20.184156 26.897562 20.062844 26.726562 19.964844 C 26.678563 19.937844 26.639859 19.863641 26.630859 19.806641 C 26.612859 19.685641 26.612281 19.5605 26.613281 19.4375 C 26.619281 16.5095 26.632813 9.9882813 26.632812 9.9882812 z M 34.236328 9.9941406 L 40.894531 10.001953 L 40.873047 12.722656 C 40.873047 12.722656 38.775078 12.725938 37.830078 12.710938 C 37.579078 12.706938 37.525391 12.712891 37.525391 12.712891 L 37.527344 14.998047 C 37.527344 14.998047 37.595781 14.986375 37.800781 14.984375 C 38.700781 14.974375 40.742187 14.976562 40.742188 14.976562 L 40.761719 17.691406 L 37.527344 17.689453 L 37.527344 19.861328 L 41.001953 19.839844 C 40.998953 19.839844 41.004234 20.723094 40.990234 20.996094 C 40.987234 21.063094 40.951641 21.129313 40.931641 21.195312 C 40.907641 21.189312 40.883375 21.182734 40.859375 21.177734 C 40.818375 21.026734 40.821656 20.819328 40.722656 20.736328 C 40.602656 20.636328 40.391516 20.594281 40.228516 20.613281 C 40.065516 20.632281 39.852437 20.718703 39.773438 20.845703 C 39.695437 20.970703 39.757813 21.183859 39.757812 21.380859 C 39.632812 21.398859 39.513672 21.415594 39.388672 21.433594 C 39.343672 21.321594 39.303672 21.221094 39.263672 21.121094 C 39.242672 21.120094 39.222172 21.119187 39.201172 21.117188 C 39.181172 21.191188 39.178672 21.274891 39.138672 21.337891 C 39.098672 21.400891 39.02375 21.444188 38.96875 21.492188 L 38.96875 22.107422 C 38.67475 21.736422 38.297469 21.975656 37.980469 21.847656 C 37.905469 22.258656 37.818203 22.299688 37.283203 22.179688 C 37.325203 22.120687 37.362766 22.068062 37.384766 22.039062 C 37.330766 21.931062 37.264188 21.841234 37.242188 21.740234 C 37.218187 21.632234 37.236328 21.516672 37.236328 21.388672 C 36.859328 21.333672 36.517469 21.36625 36.230469 21.65625 C 36.189469 21.69825 36.070187 21.662109 35.992188 21.662109 C 35.955188 21.755109 35.919766 21.845547 35.884766 21.935547 C 35.863766 21.930547 35.843266 21.924922 35.822266 21.919922 C 35.809266 21.797922 35.796203 21.676641 35.783203 21.556641 C 35.073203 21.433641 34.780453 21.639453 34.939453 22.189453 L 34.259766 22.189453 C 34.317766 22.005453 34.266812 21.822672 34.257812 21.638672 C 34.246812 21.436672 34.248047 21.23425 34.248047 21.03125 C 34.245047 17.46725 34.236328 9.9941406 34.236328 9.9941406 z M 17.027344 10.005859 C 18.607344 10.017859 20.186625 10.034531 21.765625 10.019531 C 22.481625 10.012531 23.178797 10.101562 23.841797 10.351562 C 25.073797 10.816562 25.8515 11.687719 26.0625 13.011719 C 26.2185 13.994719 26.137563 14.945406 25.601562 15.816406 C 25.114563 16.607406 24.423906 17.113016 23.503906 17.291016 C 23.479906 17.296016 23.457297 17.313844 23.404297 17.339844 C 24.345297 18.536844 25.269656 19.710828 26.222656 20.923828 C 25.993656 20.940828 25.922031 21.036469 25.957031 21.230469 C 25.971031 21.307469 25.902094 21.397422 25.871094 21.482422 C 25.802094 21.435422 25.733062 21.387797 25.664062 21.341797 C 25.631062 21.319797 25.5925 21.283062 25.5625 21.289062 C 25.5325 21.295063 25.497281 21.341953 25.488281 21.376953 C 25.475281 21.426953 25.494516 21.485203 25.478516 21.533203 C 25.462516 21.582203 25.420625 21.624922 25.390625 21.669922 C 25.360625 21.625922 25.323734 21.584156 25.302734 21.535156 C 25.286734 21.497156 25.292109 21.449859 25.287109 21.380859 C 25.146109 21.372859 25.010281 21.365422 24.863281 21.357422 C 24.851281 21.496422 24.841078 21.619187 24.830078 21.742188 L 24.736328 21.742188 C 24.728328 21.561187 24.700844 21.378219 24.714844 21.199219 C 24.732844 20.972219 24.632781 20.896203 24.425781 20.908203 C 24.346781 20.913203 24.2665 20.920828 24.1875 20.923828 C 23.9805 20.926828 23.825688 20.936328 23.929688 21.236328 C 23.993688 21.420328 23.941406 21.645391 23.941406 21.900391 C 23.734406 21.717391 23.501156 21.59525 23.410156 21.40625 C 23.326156 21.23125 23.392578 20.984953 23.392578 20.751953 C 23.350578 20.761953 23.250656 20.783359 23.097656 20.818359 C 23.050656 20.565359 22.996359 20.275328 22.943359 19.986328 C 22.915359 19.977328 22.887375 19.968937 22.859375 19.960938 C 22.792375 20.087937 22.691016 20.209703 22.666016 20.345703 C 22.636016 20.505703 22.685781 20.67775 22.675781 20.84375 C 22.669781 20.93675 22.611172 21.026188 22.576172 21.117188 C 22.492172 21.067187 22.376125 21.037844 22.328125 20.964844 C 21.878125 20.277844 21.442094 19.581578 20.996094 18.892578 C 20.731094 18.483578 20.3355 17.917672 20.0625 17.513672 C 20.0315 17.520672 20.087891 20.790828 20.087891 22.423828 C 19.978891 22.299828 19.915406 22.228234 19.816406 22.115234 L 19.318359 22.115234 L 19.318359 21.728516 C 19.103359 21.711516 18.896359 21.695688 18.693359 21.679688 C 18.679359 21.660688 18.660156 21.646813 18.660156 21.632812 C 18.665156 21.210812 18.663344 21.281391 18.277344 21.275391 C 18.065344 21.272391 17.853578 21.267391 17.642578 21.275391 C 17.486578 21.282391 17.258062 21.194953 17.289062 21.501953 C 16.960062 21.631953 17.136359 21.931437 17.068359 22.148438 C 17.042359 22.231437 16.9825 22.302906 16.9375 22.378906 C 16.8925 22.295906 16.808594 22.213859 16.808594 22.130859 C 16.802594 18.422859 16.804688 14.712906 16.804688 11.003906 C 16.804688 10.747906 16.811734 10.491328 16.802734 10.236328 C 16.796734 10.069328 16.848344 10.004859 17.027344 10.005859 z M 16.248047 10.027344 L 16.230469 12.978516 C 16.230469 12.978516 13.797359 12.974609 12.693359 12.974609 L 12.357422 12.974609 C 12.357422 13.637609 12.367187 15.007812 12.367188 15.007812 C 12.367188 15.007812 14.517469 15.015625 15.480469 15.015625 L 15.908203 15.015625 L 15.908203 15.671875 C 15.908203 16.253875 15.902344 17.691406 15.902344 17.691406 L 12.351562 17.685547 C 12.351562 17.685547 12.357984 20.133031 12.333984 21.207031 C 12.330984 21.329031 12.442859 21.592281 12.130859 21.613281 C 12.102859 21.615281 12.075266 21.828359 12.072266 21.943359 C 12.068266 22.127359 12.094797 22.311141 12.091797 22.494141 C 12.090797 22.548141 12.032953 22.599344 12.001953 22.652344 C 11.960953 22.604344 11.899766 22.562812 11.884766 22.507812 C 11.861766 22.425812 11.871187 22.335047 11.867188 22.248047 C 11.438187 22.196047 11.439781 22.196406 11.300781 22.566406 C 11.286781 22.604406 11.230359 22.62725 11.193359 22.65625 C 11.154359 22.59825 11.083031 22.539469 11.082031 22.480469 C 11.074031 22.200469 11.084844 21.919672 11.089844 21.638672 C 11.097844 21.172672 10.877969 21.011484 10.417969 21.146484 C 10.386969 21.155484 10.356969 21.1665 10.292969 21.1875 L 10.292969 20.154297 C 10.119969 20.139297 9.9712187 20.126281 9.8242188 20.113281 C 9.8392188 20.093281 9.8541406 20.073688 9.8691406 20.054688 C 9.7741406 19.968688 9.6578437 19.898922 9.5898438 19.794922 C 9.5228437 19.691922 9.5059219 19.554344 9.4199219 19.402344 C 9.3889219 19.527344 9.3573125 19.653734 9.3203125 19.802734 C 9.1713125 19.850734 9.0703125 19.826609 9.0703125 19.599609 C 9.0763125 16.635609 9.1386719 10.080078 9.1386719 10.080078 L 16.248047 10.027344 z M 20.289062 12.484375 C 20.144063 12.484375 20.115234 12.496094 20.115234 12.496094 C 20.115234 12.496094 20.118188 13.565859 20.117188 14.005859 C 20.117188 14.436859 20.083719 15.510672 20.136719 15.513672 C 20.700719 15.539672 21.396828 15.53925 21.923828 15.28125 C 22.454828 15.02125 22.694594 14.599812 22.683594 14.007812 C 22.672594 13.416813 22.465531 12.972516 21.894531 12.728516 C 21.377531 12.507516 20.837063 12.485375 20.289062 12.484375 z M 20.777344 22.878906 C 20.825844 22.888531 20.863219 22.936516 20.886719 23.041016 C 21.066719 23.836016 21.258406 24.628828 21.441406 25.423828 C 21.564406 25.954828 21.500953 26.49525 21.501953 27.03125 C 21.504953 28.86525 21.498234 30.69725 21.490234 32.53125 C 21.489234 32.71225 21.547422 32.796391 21.732422 32.775391 C 21.784422 32.769391 21.840578 32.767391 21.892578 32.775391 C 22.031578 32.797391 22.226922 32.686187 22.294922 32.867188 C 22.374922 33.070187 22.384094 33.297047 22.246094 33.498047 C 22.111094 33.696047 21.927 33.849906 21.75 34.003906 C 21.576 34.154906 21.495094 34.320828 21.496094 34.548828 C 21.498094 35.535828 21.488234 36.524719 21.490234 37.511719 C 21.490234 37.703719 21.423438 37.839891 21.273438 37.962891 C 21.073438 38.126891 20.988547 38.402547 20.685547 38.560547 L 20.685547 37.363281 C 20.685547 37.081281 20.687547 36.799578 20.685547 36.517578 C 20.684547 36.443578 20.71175 36.350078 20.59375 36.330078 C 20.48875 36.312078 20.473828 36.397031 20.423828 36.457031 C 20.252828 36.663031 20.237234 36.900344 20.240234 37.152344 C 20.246234 37.892344 20.244141 38.631094 20.244141 39.371094 C 20.244141 39.441094 20.257125 39.513266 20.203125 39.572266 L 20.052734 39.572266 C 19.910734 39.515266 19.9385 39.388297 19.9375 39.279297 C 19.9345 38.733297 19.9335 38.186625 19.9375 37.640625 C 19.9395 37.305625 19.798 37.196453 19.5 37.314453 C 19.443 37.337453 19.368172 37.367453 19.326172 37.314453 C 19.194172 37.146453 19.122297 37.240469 19.029297 37.355469 C 18.943297 37.461469 18.865141 37.423875 18.869141 37.296875 C 18.870141 37.265875 18.869141 37.234125 18.869141 37.203125 L 18.865234 37.205078 L 18.865234 36.865234 C 18.863234 36.767234 18.863234 36.670266 18.865234 36.572266 L 18.865234 35.767578 L 18.865234 35.763672 C 18.864234 35.749672 18.865234 35.736656 18.865234 35.722656 L 18.865234 35.396484 C 18.864234 35.383484 18.860328 35.371469 18.861328 35.355469 C 18.865328 35.287469 18.864234 35.218391 18.865234 35.150391 L 18.865234 34.173828 C 18.619234 33.963828 18.363719 33.76225 18.136719 33.53125 C 17.957719 33.34925 18.053688 33.095094 18.054688 32.871094 C 18.054688 32.804094 18.125359 32.775438 18.193359 32.773438 C 18.281359 32.770437 18.373031 32.755437 18.457031 32.773438 C 18.944031 32.878437 19.204703 32.528234 19.470703 32.240234 C 19.605703 32.094234 19.493719 31.893609 19.386719 31.724609 C 19.227719 31.847609 19.073344 31.966656 18.902344 32.097656 C 18.806344 31.810656 18.969484 31.649344 19.146484 31.527344 C 19.547484 31.250344 19.589375 31.171734 19.484375 30.677734 C 19.314375 30.724734 19.237656 30.892609 19.097656 30.974609 C 19.031656 31.012609 18.964391 31.116875 18.900391 31.046875 C 18.828391 30.968875 18.836687 30.843672 18.929688 30.763672 C 19.075688 30.638672 19.231859 30.523344 19.380859 30.402344 C 19.489859 30.314344 19.580672 29.859141 19.513672 29.744141 C 19.462672 29.658141 19.413187 29.71 19.367188 29.75 C 19.254188 29.848 19.143297 29.947922 19.029297 30.044922 C 18.989297 30.078922 18.944625 30.124891 18.890625 30.087891 C 18.840625 30.053891 18.859281 29.991406 18.863281 29.941406 C 18.869281 29.838406 18.916953 29.760219 19.001953 29.699219 C 19.121953 29.613219 19.242422 29.524641 19.357422 29.431641 C 19.506422 29.312641 19.596437 28.944391 19.523438 28.775391 C 19.470437 28.652391 19.410281 28.741344 19.363281 28.777344 C 19.246281 28.868344 19.137531 28.971547 19.019531 29.060547 C 18.985531 29.086547 18.944719 29.151609 18.886719 29.099609 C 18.842719 29.058609 18.852141 28.999219 18.869141 28.949219 C 18.918141 28.798219 19.041969 28.711766 19.167969 28.634766 C 19.437969 28.468766 19.584391 28.255922 19.525391 27.919922 C 19.499391 27.770922 19.467516 27.748703 19.353516 27.845703 C 19.247516 27.935703 19.136391 28.020469 19.025391 28.105469 C 18.931391 28.177469 18.865234 28.176203 18.865234 28.033203 C 18.869234 27.249203 18.792391 26.453594 18.900391 25.683594 C 19.002391 24.960594 19.365453 24.296219 19.814453 23.699219 C 20.037453 23.403219 20.315469 23.170266 20.605469 22.947266 C 20.668969 22.898266 20.728844 22.869281 20.777344 22.878906 z M 28.605469 24.904297 C 29.041844 24.897547 29.476656 24.897734 29.910156 24.927734 C 31.173156 25.014734 32.277344 25.468453 33.027344 26.564453 C 34.046344 28.053453 33.810438 30.441672 32.523438 31.638672 C 32.117438 32.016672 31.545906 32.305125 30.878906 32.453125 C 31.831906 33.697125 32.767797 34.920156 33.716797 36.160156 C 33.326797 36.230156 33.529656 36.583875 33.347656 36.796875 C 33.298656 36.754875 33.241406 36.711156 33.191406 36.660156 C 33.155406 36.623156 33.126703 36.576203 33.095703 36.533203 C 33.065703 36.587203 33.034813 36.642266 33.007812 36.697266 C 33.000813 36.711266 33.011859 36.733047 33.005859 36.748047 C 32.976859 36.811047 32.944063 36.8745 32.914062 36.9375 C 32.876063 36.8785 32.834734 36.821766 32.802734 36.759766 C 32.787734 36.731766 32.792109 36.693438 32.787109 36.648438 C 32.728109 36.641438 32.675906 36.643953 32.628906 36.626953 C 32.350906 36.524953 32.315797 36.556719 32.341797 36.886719 C 32.345797 36.931719 32.321547 36.979391 32.310547 37.025391 C 32.286547 37.026391 32.262281 37.027344 32.238281 37.027344 C 32.231281 36.899344 32.21575 36.770578 32.21875 36.642578 C 32.22975 36.132578 32.228844 36.126109 31.714844 36.162109 C 31.630844 36.168109 31.547313 36.190031 31.445312 36.207031 C 31.445312 36.476031 31.456453 36.734234 31.439453 36.990234 C 31.433453 37.073234 31.352641 37.153375 31.306641 37.234375 C 31.277641 37.224375 31.24775 37.215078 31.21875 37.205078 C 31.19875 37.056078 31.179203 36.906047 31.158203 36.748047 C 31.074203 36.762047 30.976938 36.779688 30.835938 36.804688 L 30.835938 36.03125 C 30.804938 36.02525 30.773188 36.018719 30.742188 36.011719 C 30.689187 36.148719 30.635031 36.285828 30.582031 36.423828 C 30.562031 36.413828 30.543437 36.404531 30.523438 36.394531 C 30.479437 36.048531 30.436672 35.702422 30.388672 35.357422 C 30.385672 35.333422 30.340781 35.31425 30.300781 35.28125 C 30.128781 35.54825 30.116719 35.825234 30.136719 36.115234 C 30.142719 36.206234 30.104891 36.300578 30.087891 36.392578 C 29.992891 36.342578 29.862547 36.314328 29.810547 36.236328 C 29.459547 35.707328 29.127156 35.167812 28.785156 34.632812 C 28.425156 34.068812 28.061219 33.506359 27.699219 32.943359 C 27.677219 32.908359 27.651906 32.875797 27.628906 32.841797 C 27.604906 32.850797 27.580641 32.859141 27.556641 32.869141 L 27.556641 37.662109 C 27.523641 37.675109 27.490984 37.690125 27.458984 37.703125 C 27.392984 37.616125 27.326328 37.529156 27.236328 37.410156 L 26.753906 37.410156 C 26.763906 37.328156 26.782391 37.260266 26.775391 37.197266 C 26.758391 37.036266 26.723047 36.903797 26.498047 36.966797 C 26.384047 36.998797 26.255672 36.972656 26.138672 36.972656 C 26.125672 36.944656 26.111328 36.929063 26.111328 36.914062 C 26.128328 36.577062 25.954484 36.484344 25.646484 36.527344 C 25.507484 36.547344 25.362703 36.521391 25.220703 36.525391 C 25.149703 36.527391 24.600641 36.798937 24.556641 36.835938 C 24.468641 36.908938 24.377109 36.978781 24.287109 37.050781 C 24.261109 37.035781 24.235938 37.020859 24.210938 37.005859 C 24.236937 36.922859 24.264922 36.840094 24.294922 36.746094 C 24.271922 36.650094 24.215891 36.522578 24.212891 36.392578 C 24.201891 35.963578 24.207031 35.533516 24.207031 35.103516 L 24.207031 25.201172 L 24.207031 24.908203 C 24.324031 24.902203 26.374875 24.917875 27.296875 24.921875 C 27.732875 24.923875 28.169094 24.911047 28.605469 24.904297 z M 34.144531 24.908203 L 40.851562 24.908203 C 40.863563 24.944203 40.890625 27.712891 40.890625 27.712891 C 40.890625 27.712891 38.699516 27.699219 37.728516 27.699219 L 37.455078 27.699219 L 37.455078 30.03125 L 40.730469 30.03125 L 40.730469 32.830078 L 37.451172 32.830078 L 37.451172 35.066406 L 40.974609 35.066406 C 40.912609 35.549406 41.021734 36.002516 40.927734 36.478516 C 40.859734 36.436516 40.832984 36.424922 40.833984 36.419922 C 40.939984 35.983922 40.607359 35.876313 40.318359 35.820312 C 40.149359 35.788313 39.928531 35.895047 39.769531 35.998047 C 39.693531 36.047047 39.662594 36.238563 39.683594 36.351562 C 39.749594 36.695563 39.747484 36.708203 39.396484 36.658203 C 39.364484 36.653203 39.330156 36.666875 39.285156 36.671875 C 39.279156 36.573875 39.276578 36.48675 39.267578 36.34375 C 39.139578 36.51675 38.994219 36.639016 38.949219 36.791016 C 38.898219 36.962016 38.937344 37.160328 38.902344 37.361328 C 38.640344 37.033328 38.302672 37.193781 38.013672 37.175781 C 37.740672 37.158781 37.91225 37.379578 37.90625 37.517578 L 37.191406 37.517578 L 37.191406 36.685547 C 36.935406 36.685547 36.683641 36.680453 36.431641 36.689453 C 36.378641 36.691453 36.29925 36.73625 36.28125 36.78125 C 36.20025 36.98125 36.045375 36.989078 35.859375 36.955078 C 35.846375 37.046078 35.834266 37.124125 35.822266 37.203125 C 35.800266 37.217125 35.778859 37.232094 35.755859 37.246094 C 35.745859 37.213094 35.730516 37.181438 35.728516 37.148438 C 35.703516 36.797438 35.704844 36.796875 35.339844 36.796875 C 35.207844 36.796875 35.073406 36.798734 34.941406 36.802734 C 34.917406 36.803734 34.894656 36.820797 34.847656 36.841797 L 34.847656 37.515625 L 34.189453 37.515625 L 34.189453 36.851562 L 34.1875 36.669922 C 34.1725 36.207922 34.147484 35.74325 34.146484 35.28125 C 34.142484 31.92925 34.144531 28.576609 34.144531 25.224609 L 34.144531 24.908203 z M 9 24.925781 L 16.1875 24.925781 L 16.1875 27.964844 L 12.292969 27.964844 L 12.292969 30.0625 L 15.847656 30.0625 L 15.847656 32.808594 L 12.302734 32.808594 C 12.284734 32.997594 12.253906 33.339844 12.253906 33.339844 L 12.248047 33.398438 L 12.248047 36.837891 C 11.864047 36.914891 11.976359 37.243391 11.943359 37.525391 C 11.598359 37.507391 11.254688 37.492625 11.054688 37.890625 C 11.050688 37.661625 10.937375 37.460781 11.109375 37.300781 C 11.084375 37.214781 11.013484 37.091609 11.021484 36.974609 C 11.053484 36.480609 10.950797 36.360859 10.466797 36.380859 C 10.388797 36.383859 10.312312 36.401922 10.195312 36.419922 L 10.195312 35.382812 C 10.003312 35.371812 9.8486406 35.363516 9.6816406 35.353516 C 9.6346406 35.207516 9.6980625 34.97225 9.4140625 35.03125 C 9.4040625 34.88325 9.3976719 34.757859 9.3886719 34.630859 C 9.3656719 34.627859 9.3413594 34.624094 9.3183594 34.621094 C 9.3003594 34.746094 9.2827187 34.870484 9.2617188 35.021484 C 9.1847188 35.027484 9.101 35.034969 9 35.042969 L 9 24.925781 z M 27.582031 27.460938 L 27.582031 30.619141 C 28.032031 30.584141 28.460234 30.601719 28.865234 30.511719 C 30.104234 30.236719 30.277078 29.542141 30.080078 28.494141 C 30.046078 28.310141 29.920297 28.110422 29.779297 27.982422 C 29.147297 27.407422 28.361031 27.481938 27.582031 27.460938 z"/></svg>