<?xml version="1.0" ?><svg style="enable-background:new 0 0 512 512;" version="1.1" viewBox="0 0 512 512" xml:space="preserve" xmlns="http://www.w3.org/2000/svg" xmlns:xlink="http://www.w3.org/1999/xlink"><style type="text/css">
	.st0{fill:#16ADE1;}
	.st1{fill:#1B3954;}
</style><g id="Layer_1"/><g id="Layer_2"><g><path class="st1" d="M342,77.5c-7.5-4.6-15.4-8.5-23.7-11.7v69.4c0,1-0.1,2.1-0.2,3.1l1.4,0.8c30.3,17.4,49.2,49.9,49.2,84.8    c0,53.9-43.8,97.7-97.7,97.7c-53.9,0-97.7-43.8-97.7-97.7c0-34.9,18.8-67.4,49.2-84.8l1.4-0.8c-0.1-1-0.2-2.1-0.2-3.1V63    c-8.3,2.6-16.2,5.9-23.7,9.9c-46.5,24.6-78.1,73.8-78.1,130V234l-20.8,67.3c-1.6,5.2,2.3,10.5,7.8,10.5h13l6.5,53.6    c1.7,14,13.6,24.6,27.7,24.6h59.9V471h136.4v-64.5c0-44.9,12.2-89.1,36.5-126.9c14.5-22.6,22.9-49.5,22.9-78.3    C411.5,148.9,383.7,103,342,77.5z"/><path class="st0" d="M183.2,224c0,48.4,39.3,87.7,87.7,87.7c48.4,0,87.7-39.3,87.7-87.7c0-32.6-17.8-61-44.2-76.2    c-0.4,0.7-0.9,1.3-1.4,1.9c-4,4.8-9.8,7.7-16,8.1v30.4c0.4,0.3,0.8,0.6,1.1,0.8c0.2,0.2,0.4,0.3,0.7,0.5c1.1,0.9,2.1,1.8,3.1,2.8    c0.2,0.2,0.4,0.4,0.5,0.5c0.2,0.2,0.4,0.4,0.5,0.6c0.2,0.3,0.5,0.5,0.7,0.8c0.3,0.3,0.6,0.6,0.8,0.9c0.6,0.7,1.1,1.3,1.6,2    c0.3,0.3,0.5,0.7,0.8,1c0.2,0.3,0.4,0.6,0.6,0.9c0.8,1.1,1.5,2.3,2.1,3.4c0.2,0.4,0.4,0.7,0.6,1.1c0,0,0,0.1,0,0.1    c0.2,0.4,0.4,0.7,0.6,1.1c0.4,0.8,0.7,1.6,1,2.4c0.2,0.4,0.3,0.7,0.4,1.1c0.1,0.3,0.2,0.6,0.3,0.9c0.1,0.3,0.2,0.6,0.3,1    c0.1,0.2,0.2,0.5,0.2,0.7c0.2,0.7,0.4,1.4,0.6,2.1c0.1,0.3,0.2,0.6,0.2,0.9c0.1,0.5,0.2,1,0.3,1.4c0,0.1,0,0.1,0,0.2    c0.1,0.4,0.1,0.8,0.2,1.2c0.1,0.6,0.2,1.3,0.3,1.9c0,0.2,0.1,0.5,0.1,0.7c0.1,0.4,0.1,0.7,0.1,1.1c0,0.1,0,0.1,0,0.2    c0,0.5,0.1,0.9,0.1,1.3c0,0.2,0,0.4,0,0.6c0,0.5,0,1,0,1.5c0,24.5-19.8,44.3-44.3,44.3c-24.5,0-44.3-19.8-44.3-44.3    c0-0.5,0-1,0-1.5c0-0.2,0-0.4,0-0.6c0-0.4,0-0.9,0.1-1.3c0,0,0-0.1,0-0.2c0-0.4,0.1-0.7,0.1-1.1c0-0.3,0.1-0.5,0.1-0.7    c0.1-0.6,0.2-1.3,0.3-1.9c0.1-0.4,0.1-0.8,0.2-1.2c0-0.1,0-0.1,0-0.2c0.1-0.5,0.2-1,0.3-1.4c0-0.1,0-0.1,0-0.2    c0.1-0.5,0.2-0.9,0.3-1.4c0.1-0.5,0.3-1,0.4-1.5c0.1-0.2,0.2-0.5,0.2-0.7c0.1-0.3,0.2-0.6,0.3-1c0.1-0.3,0.2-0.6,0.3-0.9    c0.1-0.4,0.3-0.7,0.4-1.1c0.3-0.7,0.6-1.4,0.9-2.1c0.1-0.3,0.3-0.6,0.5-0.9c0.2-0.4,0.4-0.7,0.6-1.1c0-0.1,0.1-0.2,0.1-0.2    c0.2-0.5,0.5-0.9,0.8-1.3c0.2-0.4,0.5-0.8,0.7-1.2c0.4-0.6,0.8-1.2,1.2-1.8c0.2-0.2,0.3-0.4,0.5-0.7c0.2-0.2,0.3-0.5,0.5-0.7    c0.5-0.7,1.1-1.4,1.6-2c0.2-0.2,0.4-0.4,0.5-0.6c0.5-0.6,1-1.1,1.5-1.6c0.2-0.2,0.4-0.4,0.5-0.5c1-1,2-1.9,3.1-2.8    c0.2-0.2,0.4-0.4,0.6-0.5c0.4-0.3,0.7-0.6,1.1-0.8v-30.4c-6.3-0.4-12.1-3.3-16.1-8.1c-0.5-0.6-1-1.2-1.4-1.9    C200.9,163,183.2,191.4,183.2,224z"/><path class="st1" d="M259.5,240.6c2.9,2.9,6.9,4.7,11.4,4.7c8.9,0,16.1-7.2,16.1-16.1v-71.4h-32.2v71.4    C254.8,233.7,256.6,237.7,259.5,240.6z"/><path class="st0" d="M246.1,147.8h49.7c3.9,0,7.4-1.8,9.6-4.5c1.8-2.2,2.9-5,2.9-8V53.6c0-6.9-5.6-12.6-12.6-12.6h-49.7    c-6.9,0-12.6,5.6-12.6,12.6v81.7c0,3.1,1.1,5.9,2.9,8C238.7,146.1,242.2,147.8,246.1,147.8z"/></g></g></svg>