<svg fill="#FA5252" xmlns="http://www.w3.org/2000/svg"  viewBox="0 0 50 50" width="100px" height="100px"><path d="M 24.998047 5.0019531 C 12.853047 5.0019531 2.9980469 14.857953 2.9980469 27.001953 L 2.9980469 28.001953 C 2.9980469 28.553953 3.4460469 29.001953 3.9980469 29.001953 L 6.9980469 29.001953 C 7.5490469 29.001953 7.9980469 28.553953 7.9980469 28.001953 L 7.9980469 27.001953 L 21.001953 27.001953 C 21.001953 29.209953 22.793953 31.001953 25.001953 31.001953 C 27.209953 31.001953 29.001953 29.209953 29.001953 27.001953 L 41.998047 27.001953 L 41.998047 28.001953 C 41.998047 28.553953 42.446047 29.001953 42.998047 29.001953 L 45.998047 29.001953 C 46.549047 29.001953 46.998047 28.553953 46.998047 28.001953 L 46.998047 27.001953 C 46.998047 14.857953 37.142047 5.0019531 24.998047 5.0019531 z M 25.001953 9 C 25.552953 9 26.001953 9.449 26.001953 10 L 26.001953 11.03125 C 33.700953 11.50725 39.931953 17.437 40.876953 25 L 38.857422 25 C 37.932422 18.544 32.593953 13.502156 26.001953 13.035156 L 26.001953 17.050781 C 30.382953 17.486781 33.935828 20.757 34.798828 25 L 32.746094 25 C 31.937094 21.868 29.276953 19.4715 26.001953 19.0625 L 26.001953 25.269531 C 26.598953 25.615531 27.001953 26.262953 27.001953 27.001953 C 27.001953 28.105953 26.105 29.001953 25 29.001953 C 23.896 29.001953 23 28.105953 23 27.001953 C 23 26.262953 23.401047 25.614531 23.998047 25.269531 L 24.001953 10 C 24.001953 9.449 24.449953 9 25.001953 9 z M 41.986328 31.986328 A 1.0001 1.0001 0 0 0 41.835938 32.001953 L 38.001953 32.001953 A 1.0001 1.0001 0 1 0 38.001953 34.001953 L 41.001953 34.001953 L 41.001953 44.001953 A 1.0001 1.0001 0 1 0 43.001953 44.001953 L 43.001953 34.001953 L 46.001953 34.001953 A 1.0001 1.0001 0 1 0 46.001953 32.001953 L 42.171875 32.001953 A 1.0001 1.0001 0 0 0 41.986328 31.986328 z M 4.0019531 32.001953 A 1.0001 1.0001 0 0 0 3.0019531 33.001953 L 3.0019531 37.830078 A 1.0001 1.0001 0 0 0 3.0019531 38.164062 L 3.0019531 44.001953 A 1.0001 1.0001 0 1 0 5.0019531 44.001953 L 5.0019531 39.001953 L 11.001953 39.001953 A 1.0001 1.0001 0 1 0 11.001953 37.001953 L 5.0019531 37.001953 L 5.0019531 34.001953 L 12.001953 34.001953 A 1.0001 1.0001 0 1 0 12.001953 32.001953 L 4.0019531 32.001953 z M 18.001953 32.001953 A 1.0001 1.0001 0 0 0 17.089844 32.587891 L 12.089844 43.587891 A 1.000401 1.000401 0 1 0 13.912109 44.414062 L 15.007812 42.001953 L 21.994141 42.001953 L 23.089844 44.414062 A 1.000401 1.000401 0 1 0 24.912109 43.587891 L 19.912109 32.587891 A 1.0001 1.0001 0 0 0 19.001953 32.001953 L 18.001953 32.001953 z M 30.001953 32.001953 C 27.875341 32.001953 26.001953 33.547153 26.001953 35.609375 C 26.001953 36.1919 26.248565 36.740907 26.587891 37.132812 C 26.927216 37.52472 27.341806 37.799161 27.783203 38.033203 C 28.665998 38.501287 29.699154 38.814907 30.693359 39.136719 C 31.687564 39.45853 32.639336 39.788193 33.246094 40.142578 C 33.852852 40.496963 34.001953 40.711198 34.001953 41.001953 C 34.001953 41.358133 33.684952 41.866644 33.056641 42.296875 C 32.428329 42.727106 31.559422 43.001953 31.001953 43.001953 C 29.850226 43.001953 28.431012 42.238472 27.800781 41.400391 A 1.0001951 1.0001951 0 1 0 26.201172 42.601562 C 27.268941 44.021482 29.09168 45.001953 31.001953 45.001953 C 32.100485 45.001953 33.229811 44.603035 34.1875 43.947266 C 35.145189 43.291496 36.001953 42.301773 36.001953 41.001953 C 36.001953 39.811209 35.149101 38.937725 34.255859 38.416016 C 33.362618 37.894307 32.314389 37.557985 31.308594 37.232422 C 30.302799 36.906859 29.335955 36.592885 28.71875 36.265625 C 28.410147 36.101995 28.199738 35.937606 28.101562 35.824219 C 28.003393 35.710832 28.001953 35.68685 28.001953 35.609375 C 28.001953 34.791597 28.816565 34.001953 30.001953 34.001953 C 31.305928 34.001953 32.378292 34.272257 33.53125 34.884766 A 1.0008626 1.0008626 0 0 0 34.470703 33.117188 C 33.063661 32.369697 31.599977 32.001953 30.001953 32.001953 z M 18.5 34.318359 L 21.083984 40.001953 L 15.917969 40.001953 L 18.5 34.318359 z"/></svg>